<svg version="1.1" id="Camada_1" xmlns="http://www.w3.org/2000/svg" x="0" y="0" viewBox="0 0 320 320" style="enable-background:new 0 0 320 320" xml:space="preserve"><style>.st0{fill:#fff}</style><path class="st0" d="M21.4 180c1 6.8 2.4 13.5 4.4 20h268.4c1.9-6.5 3.4-13.2 4.4-20H21.4z"/><path class="st0" d="M33.5 220c-3.1-6.5-5.6-13.1-7.7-20-1.9-6.5-3.4-13.2-4.4-20H1.2c2.7 21.7 9.7 42 20.2 60h23.7c-4.5-6.4-8.3-13.1-11.6-20zM140 220c3.3 6.9 7.2 13.6 11.6 20h146.9c3.7-6.4 7-13.1 9.8-20H140zM82.5 300c23 12.7 49.4 20 77.5 20s54.5-7.3 77.5-20h-155zM35.1 260c5.8 7.2 12.2 13.9 19.1 20h211.6c6.9-6.1 13.3-12.8 19.1-20H35.1zM320 160C320 71.6 248.4 0 160 0S0 71.6 0 160h320z"/></svg>