<?xml version="1.0" encoding="utf-8"?>
<!-- Generator: Adobe Illustrator 24.1.0, SVG Export Plug-In . SVG Version: 6.00 Build 0)  -->
<svg version="1.1" id="Camada_1" xmlns="http://www.w3.org/2000/svg" xmlns:xlink="http://www.w3.org/1999/xlink" x="0px" y="0px"
	 viewBox="0 0 328 328" style="enable-background:new 0 0 328 328;" xml:space="preserve">
<style type="text/css">
	.st0{fill:none;}
	.st1{fill:#01A8AE;}
	.st2{fill:url(#SVGID_1_);}
</style>
<g>
	<path class="st0" d="M164,24c-37.4,0-72.55,14.56-98.99,41.01c-26.44,26.43-41,61.58-41,98.96h280
		c-0.01-37.38-14.57-72.53-41-98.96C236.55,38.56,201.4,24,164,24z"/>
	<path class="st1" d="M37.46,224c-3.07-6.46-5.65-13.14-7.68-20c-1.93-6.52-3.39-13.2-4.36-20c0-0.01,0-0.02,0-0.03H5.24
		c2.7,21.65,9.73,41.96,20.18,60.03H36h13.08C44.64,237.64,40.76,230.95,37.46,224z"/>
	<path class="st1" d="M296,224h-5.44h-92.02H144c3.3,6.95,7.18,13.64,11.63,20h42.92h80.38H296h6.57c3.7-6.4,6.98-13.08,9.78-20H296
		z"/>
	<path class="st1" d="M86.51,304c22.96,12.74,49.37,20,77.49,20c28.12,0,54.53-7.26,77.49-20H164H86.51z"/>
	<path class="st1" d="M264,264h-2.03c-7.89,7.74-16.54,14.42-25.78,20H264h5.8c6.92-6.11,13.32-12.79,19.09-20H264z"/>
	<path class="st1" d="M66.03,264H64H39.11c5.78,7.21,12.17,13.89,19.09,20H64h27.82C82.58,278.42,73.93,271.74,66.03,264z"/>
	<linearGradient id="SVGID_1_" gradientUnits="userSpaceOnUse" x1="164" y1="284" x2="164" y2="4">
		<stop  offset="0" style="stop-color:#E9789E"/>
		<stop  offset="1" style="stop-color:#F2A440"/>
	</linearGradient>
	<path class="st2" d="M302.58,184c-0.97,6.8-2.43,13.48-4.36,20H29.78c-1.93-6.52-3.39-13.2-4.36-20H302.58z M264,264v-0.2H64v0.2
		h2.03c7.89,7.74,16.54,14.42,25.78,20h144.37c9.24-5.58,17.89-12.26,25.78-20H264z M324,163.97C323.98,75.62,252.35,4,164,4
		S4.02,75.62,4,163.97h8c0,0.01,0,0.02,0,0.03h304c0-0.01,0-0.02,0-0.03H324z"/>
</g>
</svg>
